<?xml version="1.0" standalone="no"?>
<!DOCTYPE svg PUBLIC "-//W3C//DTD SVG 20010904//EN"
 "http://www.w3.org/TR/2001/REC-SVG-20010904/DTD/svg10.dtd">
<svg version="1.0" xmlns="http://www.w3.org/2000/svg"
 width="1024.000000pt" height="1024.000000pt" viewBox="0 0 1024.000000 1024.000000"
 preserveAspectRatio="xMidYMid meet">

<g transform="translate(0.000000,1024.000000) scale(0.100000,-0.100000)"
fill="#000000" stroke="none">
<path d="M0 5120 l0 -5120 5120 0 5120 0 0 5120 0 5120 -5120 0 -5120 0 0
-5120z m3775 1541 c17 -10 58 -45 93 -78 50 -48 62 -65 62 -90 0 -44 -13 -74
-57 -133 -27 -36 -42 -49 -57 -46 -12 2 -15 1 -8 -1 16 -6 11 -23 -10 -36 -15
-10 -58 23 -261 194 l-31 27 27 38 c36 51 86 106 117 127 32 22 88 22 125 -2z
m-510 -77 c30 -14 85 -81 85 -101 0 -5 -20 -30 -43 -57 l-42 -48 -25 38 -25
39 -682 0 c-670 0 -682 0 -697 -20 -14 -18 -15 -132 -13 -940 l2 -919 34 -23
c20 -14 27 -23 18 -23 -23 0 -67 47 -67 73 -1 12 -1 315 -2 672 -2 603 -2 626
-9 310 -4 -187 -6 -367 -4 -400 4 -58 4 -59 -5 -15 -5 25 -7 128 -6 230 2 102
1 152 -3 112 -3 -40 -10 -72 -16 -72 -12 1 -22 -66 -26 -165 -2 -59 -3 -62 -6
-23 -2 27 0 96 6 154 8 90 7 112 -7 150 -16 43 -32 58 -32 30 0 -8 6 -16 13
-19 9 -3 11 -44 9 -172 -1 -93 -5 -171 -7 -174 -3 -2 -6 65 -6 150 -1 110 -4
140 -9 104 -4 -27 -7 -241 -6 -475 l1 -425 25 -49 c15 -30 33 -51 43 -52 11
-1 22 -6 25 -10 4 -4 -1 -4 -10 -1 -37 13 -16 -10 30 -33 l47 -25 585 -3 c322
-1 590 -4 595 -7 6 -2 -260 -3 -590 -2 l-600 2 -40 24 c-22 13 -52 38 -67 55
-57 64 -58 75 -58 609 0 386 -3 488 -12 485 -17 -6 -92 -157 -118 -236 -37
-117 -53 -246 -47 -372 4 -63 9 -126 12 -140 6 -22 5 -23 -5 -7 -19 30 -26
221 -13 332 7 55 14 111 15 125 2 14 5 27 8 30 12 12 30 79 24 93 -3 9 -1 24
5 34 9 15 10 13 6 -12 l-6 -30 14 24 c11 18 12 32 5 53 -6 16 -7 35 -4 43 3 9
0 15 -9 15 -11 0 -15 11 -15 40 0 22 -4 40 -10 40 -5 0 -10 -7 -10 -15 0 -11
-11 -15 -40 -15 -22 0 -40 -4 -40 -10 0 -5 18 -10 40 -10 53 0 51 -18 -2 -23
-40 -3 -40 -4 10 -5 39 -2 52 -5 48 -14 -3 -7 -9 -20 -12 -29 -8 -23 -68 -13
-138 23 -10 5 -34 11 -52 13 -29 2 -32 0 -22 -13 7 -8 32 -23 55 -33 31 -13
43 -24 43 -39 0 -11 4 -20 9 -20 5 0 7 9 4 20 -3 12 0 20 6 20 7 0 10 -4 7 -9
-8 -13 4 -42 15 -35 5 3 9 0 9 -6 0 -7 -7 -9 -16 -6 -12 4 -15 2 -10 -9 3 -8
1 -15 -4 -15 -6 0 -10 5 -10 11 0 6 -7 8 -16 5 -12 -5 -14 -1 -9 17 7 22 7 22
-8 2 -11 -14 -12 -24 -5 -32 6 -7 14 -11 18 -8 12 8 41 -6 34 -16 -7 -12 -44
-11 -44 1 0 6 -6 10 -14 10 -19 0 -29 -59 -14 -78 11 -13 11 -14 -1 -7 -11 6
-13 4 -8 -9 4 -9 3 -14 -2 -11 -5 3 -11 -5 -13 -17 -2 -15 -11 -24 -25 -26
-14 -2 -20 -8 -16 -18 3 -8 0 -14 -6 -14 -6 0 -11 5 -11 10 0 16 -56 12 -71
-6 -8 -9 -21 -13 -35 -10 -13 4 -26 1 -30 -5 -4 -8 7 -10 40 -8 25 2 46 1 46
-3 0 -5 -5 -8 -11 -8 -6 0 -9 -7 -5 -15 4 -12 -3 -15 -32 -15 -27 0 -33 3 -22
10 11 7 9 11 -13 19 -37 14 -40 14 -33 -5 3 -8 2 -12 -4 -9 -6 4 -10 -42 -10
-127 0 -94 3 -129 11 -118 8 12 9 11 7 -5 -3 -17 2 -20 32 -18 25 1 29 0 16
-6 -14 -5 -2 -12 50 -27 38 -10 74 -19 80 -19 24 -1 41 -27 53 -82 7 -32 17
-62 21 -68 4 -5 10 -23 14 -38 6 -25 0 -35 -51 -84 -32 -31 -57 -60 -55 -65 1
-5 -2 -7 -7 -4 -5 3 -16 -6 -26 -20 -16 -25 -15 -28 11 -90 17 -40 33 -64 43
-64 12 0 13 -2 4 -8 -9 -6 -3 -22 23 -61 33 -48 38 -52 67 -47 l32 5 -34 -11
c-30 -11 -35 -9 -52 13 -11 13 -43 70 -71 126 -61 122 -60 127 42 218 45 40
66 65 62 75 -3 8 -15 53 -27 100 l-21 84 -104 28 c-63 16 -110 34 -117 44 -9
12 -13 60 -13 154 0 118 2 139 18 153 9 8 60 23 112 33 52 10 96 19 98 20 2 1
12 41 24 89 12 53 28 95 41 108 16 16 17 19 3 14 -12 -5 -38 13 -93 66 l-76
73 18 55 c37 112 87 209 111 215 13 3 70 -3 126 -15 56 -11 103 -20 104 -18 1
1 18 25 37 52 18 28 40 50 48 50 11 0 14 30 16 155 2 85 4 209 5 276 l3 121
35 46 c22 29 51 53 80 66 43 19 71 19 738 20 612 1 698 -1 727 -15z m208 -209
c16 -14 26 -29 23 -34 -3 -5 2 -8 12 -7 9 0 16 -5 14 -12 -1 -8 2 -11 8 -7 6
3 18 -1 27 -10 9 -9 47 -42 85 -72 38 -31 67 -60 66 -65 -2 -4 -28 -42 -58
-83 -49 -66 -59 -75 -87 -75 -20 0 -33 5 -33 13 0 9 -3 8 -9 -2 -6 -9 -18 -11
-34 -7 -14 3 -29 2 -32 -4 -4 -6 10 -10 35 -10 23 0 39 -4 36 -8 -3 -5 1 -9 9
-9 8 0 12 4 9 9 -3 4 4 8 16 8 25 0 24 -2 -40 -85 -25 -33 -96 -125 -156 -205
-173 -227 -353 -464 -367 -480 -7 -9 -25 -32 -40 -53 -32 -42 -37 -41 -99 15
-20 18 -75 65 -122 103 -47 39 -86 75 -86 80 0 15 59 83 60 69 0 -6 -6 -17
-14 -23 -16 -13 -14 -73 3 -79 7 -2 9 3 5 15 -4 13 -3 14 3 5 6 -8 17 -10 29
-5 17 6 17 5 5 -10 -7 -9 -18 -14 -25 -11 -6 3 5 -8 24 -24 19 -17 39 -28 44
-25 5 4 6 1 3 -4 -4 -6 9 -23 28 -37 19 -15 49 -40 67 -56 18 -17 36 -30 39
-30 15 0 58 61 52 75 -3 11 -1 13 10 10 16 -7 31 20 20 37 -4 7 -1 8 6 4 16
-10 42 24 35 45 -2 9 4 22 13 30 16 13 17 12 4 -4 -8 -9 -11 -20 -8 -23 8 -8
78 87 71 97 -3 5 -1 8 4 7 5 -2 24 17 43 42 31 41 35 56 30 98 0 7 -18 13 -43
13 -34 2 -37 3 -13 6 17 2 35 11 41 19 10 12 13 12 24 0 6 -9 9 -19 6 -25 -8
-13 4 -42 15 -35 5 3 7 10 3 15 -8 14 23 59 41 59 15 0 82 89 77 103 -1 5 3 5
9 1 9 -5 10 -2 6 10 -4 9 0 31 8 47 9 16 13 34 9 40 -4 8 1 9 16 4 12 -4 20
-3 17 2 -3 4 0 19 7 32 12 21 14 22 20 5 6 -16 12 -13 47 25 21 25 39 45 39
46 0 2 -60 -5 -86 -10 -12 -3 -21 -12 -21 -22 0 -33 -3 -41 -18 -46 -8 -4 -17
-1 -21 5 -5 7 -2 8 6 3 8 -5 11 -4 6 3 -4 6 -13 9 -22 5 -12 -4 -12 -8 -2 -21
9 -11 10 -16 2 -19 -7 -2 -9 -14 -6 -26 5 -21 5 -21 -12 -4 -10 9 -31 17 -47
17 -30 0 -40 -17 -14 -25 43 -14 50 -17 38 -22 -19 -7 -16 -23 5 -24 13 0 13
-2 -4 -9 -29 -12 -38 -28 -24 -45 9 -11 7 -18 -9 -34 -19 -19 -20 -19 -18 -1
1 10 5 16 9 14 4 -3 8 0 8 5 0 6 -5 11 -11 11 -6 0 -8 9 -4 20 5 16 2 20 -14
20 -12 0 -21 5 -21 10 0 15 -40 12 -41 -2 0 -10 -2 -10 -6 0 -2 7 -22 12 -45
12 -34 0 -46 -6 -76 -37 l-36 -38 37 -3 c46 -4 49 -22 5 -22 -22 0 -41 9 -55
24 -27 28 -29 36 -8 36 8 0 15 7 15 15 0 21 -17 19 -30 -4 -6 -13 -17 -17 -30
-14 -25 7 -25 11 2 32 l21 18 -22 -2 c-36 -2 -75 -60 -73 -109 l1 -41 -14 35
c-12 31 -20 27 -16 -9 2 -7 -2 -10 -8 -7 -15 10 -25 -14 -11 -27 10 -9 11 -9
5 2 -5 9 -4 12 3 7 17 -10 15 -26 -4 -26 -22 0 -59 -30 -100 -82 -42 -53 -43
-68 -3 -68 20 0 28 4 23 12 -4 7 -3 8 4 4 23 -14 11 -26 -27 -26 -58 0 -58 20
-3 91 26 34 56 74 67 89 18 26 194 257 395 520 44 58 84 104 89 103 4 -1 8 4
8 11 0 17 105 155 118 155 6 0 23 -11 38 -24z m1390 -340 c70 -33 138 -100
172 -168 41 -83 38 -87 -55 -87 -70 0 -80 2 -80 18 0 10 -5 23 -12 30 -9 9 -9
12 -1 12 7 0 14 -9 18 -19 7 -22 33 -31 98 -31 56 0 58 7 21 76 -29 55 -44 69
-57 51 -5 -7 -6 -4 -3 9 8 26 -54 79 -124 105 -100 38 -248 34 -305 -8 -20
-15 -20 -15 3 -10 12 3 19 1 16 -4 -3 -5 -20 -7 -37 -4 -25 4 -38 0 -59 -19
-32 -29 -35 -38 -10 -29 14 6 15 4 4 -9 -10 -13 -10 -17 0 -21 10 -4 10 -6 0
-6 -7 -1 -15 6 -18 14 -4 8 -11 15 -16 15 -6 0 -7 -7 -4 -16 3 -8 2 -13 -3 -9
-12 7 -43 -44 -71 -115 -28 -69 -34 -203 -14 -291 38 -165 136 -264 294 -299
84 -18 267 16 255 48 -3 7 0 10 6 7 15 -10 91 46 85 62 -3 8 -1 11 4 8 11 -7
70 82 70 106 0 22 -16 27 -69 22 -28 -3 -41 -1 -36 6 3 6 32 11 65 11 l58 0
-8 -35 c-4 -19 -22 -57 -39 -83 -128 -200 -428 -228 -592 -55 -154 163 -160
467 -11 633 41 46 121 97 176 111 17 5 74 7 126 5 79 -3 105 -8 153 -31z
m-128 5 c13 -6 15 -9 5 -9 -8 0 -22 4 -30 9 -18 12 -2 12 25 0z m-1901 -21
c17 -13 26 -30 26 -47 0 -33 -8 -45 -37 -61 -30 -16 -682 -16 -717 1 -18 7
-28 22 -32 46 -6 31 -3 39 20 59 l27 23 343 0 c332 0 344 -1 370 -21z m1773 5
c-3 -3 -12 -4 -19 -1 -8 3 -5 6 6 6 11 1 17 -2 13 -5z m70 0 c-3 -3 -12 -4
-19 -1 -8 3 -5 6 6 6 11 1 17 -2 13 -5z m53 -23 c0 -5 -9 -7 -20 -4 -11 3 -20
7 -20 9 0 2 9 4 20 4 11 0 20 -4 20 -9z m47 -7 c-3 -3 -12 -4 -19 -1 -8 3 -5
6 6 6 11 1 17 -2 13 -5z m1981 -66 l-2 -73 -3 68 -4 67 -64 0 -64 0 -4 -67 -3
-68 -2 73 -2 72 75 0 75 0 -2 -72z m1801 50 c-1 -17 -2 -19 -6 -5 -4 14 -16
17 -68 17 l-64 0 -4 -77 -3 -78 -2 83 -2 82 75 0 c71 0 75 -1 74 -22z m-3939
-18 c0 -5 -3 -10 -7 -10 -5 0 -19 -3 -33 -6 l-25 -6 25 15 c31 18 40 20 40 7z
m133 3 c-7 -2 -19 -2 -25 0 -7 3 -2 5 12 5 14 0 19 -2 13 -5z m44 -33 c15 -11
34 -18 44 -15 9 3 20 1 24 -4 4 -7 -1 -8 -12 -4 -16 6 -16 5 -4 -10 7 -9 16
-15 20 -13 4 3 8 -5 8 -16 2 -19 -1 -18 -30 10 -64 61 -159 78 -239 42 -87
-38 -130 -114 -144 -257 -4 -35 -10 -65 -13 -68 -11 -6 8 166 20 181 6 7 12
36 13 63 1 44 3 48 19 39 14 -7 22 -5 33 9 7 10 14 22 14 26 0 5 4 6 8 3 5 -3
22 4 38 14 43 28 166 28 201 0z m-1307 -8 c0 -5 -8 -18 -18 -30 -18 -20 -18
-20 -30 -2 -7 12 -8 21 -2 25 6 3 10 -2 11 -12 0 -15 2 -14 11 5 11 22 28 30
28 14z m5072 -44 c2 -21 0 -38 -4 -38 -4 0 -8 21 -7 48 1 52 6 48 11 -10z
m-4042 32 c-8 -5 -19 -10 -25 -10 -5 0 -3 5 5 10 8 5 20 10 25 10 6 0 3 -5 -5
-10z m-127 -40 c-3 -11 -10 -23 -16 -27 -5 -3 -8 -2 -5 3 3 5 8 17 11 27 9 24
16 22 10 -3z m1057 -30 c-99 -6 -146 -25 -205 -85 -45 -45 -58 -68 -75 -138
-12 -44 -9 -140 5 -207 5 -22 3 -21 -9 5 -18 36 -21 167 -5 216 21 66 40 99
77 135 69 67 152 95 251 84 38 -4 32 -6 -39 -10z m1870 11 c15 -5 -9 -7 -60
-8 -59 0 -74 2 -50 7 46 10 79 10 110 1z m738 -6 c1 -1 -23 -2 -55 -2 -44 0
-51 2 -28 7 25 6 73 3 83 -5z m-1750 -15 c48 -22 78 -47 67 -58 -3 -4 -11 1
-16 11 -17 29 -70 50 -144 57 l-70 7 60 1 c40 1 74 -5 103 -18z m256 9 c-3 -6
-12 -8 -20 -5 -11 4 -14 -6 -14 -45 0 -50 0 -50 30 -45 17 2 30 0 30 -5 0 -5
-16 -9 -35 -9 l-35 0 0 53 c0 30 2 56 5 58 9 10 45 7 39 -2z m2124 -45 l-3
-39 -5 47 c-3 26 -1 43 3 39 5 -5 7 -26 5 -47z m-3050 0 c93 -70 137 -201 113
-331 -15 -82 -37 -126 -91 -179 -119 -120 -348 -107 -445 26 -10 14 2 6 26
-17 77 -74 211 -103 309 -66 97 36 158 108 186 217 21 84 8 195 -31 256 -14
22 -25 43 -25 47 0 8 -24 24 -105 71 -36 20 -37 22 -11 17 16 -3 49 -22 74
-41z m305 -572 l62 3 5 210 c4 182 7 215 23 239 10 15 21 25 24 22 4 -3 -2
-15 -13 -27 -17 -19 -19 -41 -22 -240 l-3 -219 -75 0 -74 0 2 318 3 317 2
-313 3 -313 63 3z m73 588 c1 -16 -3 -27 -7 -24 -5 3 -9 14 -9 24 0 15 -9 20
-47 23 l-48 3 55 2 c54 2 55 2 56 -28z m100 11 c-16 -11 -40 -32 -52 -47 -13
-15 -24 -22 -24 -16 0 13 79 82 94 82 6 0 -2 -9 -18 -19z m774 -36 l0 -55 -72
2 -73 2 68 3 67 4 0 49 c0 28 2 50 5 50 3 0 5 -25 5 -55z m256 42 c-10 -7 -34
-22 -52 -34 -19 -12 -34 -19 -34 -15 0 9 81 60 95 61 6 0 2 -6 -9 -12z m266
-13 c43 -27 88 -71 88 -85 0 -5 -20 12 -45 36 -24 25 -51 45 -59 45 -7 0 -19
7 -26 15 -18 22 -5 18 42 -11z m265 4 c-3 -8 -6 -5 -6 6 -1 11 2 17 5 13 3 -3
4 -12 1 -19z m131 -15 c-1 -37 -1 -37 -5 -6 -4 31 -5 32 -61 36 l-57 3 63 2
62 2 -2 -37z m525 30 c-8 -3 -13 -23 -13 -48 0 -43 1 -44 38 -48 l37 -4 -40 1
-40 1 -3 53 c-3 45 -1 52 15 51 10 0 13 -3 6 -6z m-193 -29 c0 -2 -9 0 -20 6
-11 6 -20 13 -20 16 0 2 9 0 20 -6 11 -6 20 -13 20 -16z m-3183 10 c-3 -3 -12
-4 -19 -1 -8 3 -5 6 6 6 11 1 17 -2 13 -5z m2937 -9 c-10 -8 -23 -15 -28 -15
-6 0 -1 7 10 15 10 8 23 15 28 15 6 0 1 -7 -10 -15z m-4294 -357 c0 -193 -2
-349 -5 -346 -3 2 -5 136 -5 296 -1 213 -4 292 -12 294 -19 7 -58 -3 -52 -13
11 -19 13 -49 2 -43 -6 4 -18 -2 -26 -12 -13 -16 -14 -16 -8 -1 3 9 9 25 12
35 5 14 4 13 -9 -3 -15 -18 -16 -79 -17 -549 0 -291 -2 -527 -4 -525 -4 4 -10
993 -7 1049 1 9 13 29 29 46 15 16 43 51 62 77 19 25 36 47 38 47 1 0 2 -158
2 -352z m4602 284 c11 -24 18 -46 15 -48 -3 -3 -10 9 -15 26 -6 17 -21 45 -34
63 -18 26 -19 29 -3 17 10 -8 27 -34 37 -58z m-1773 -283 c1 -258 8 -239 -90
-239 l-59 0 0 220 c0 136 -4 228 -11 243 -6 13 -23 31 -39 40 -37 22 -118 22
-142 0 -22 -20 -24 -11 -2 11 10 11 34 16 72 16 49 0 62 -4 89 -29 18 -16 35
-40 37 -53 3 -12 7 -115 8 -228 l3 -205 39 -3 c22 -2 50 -1 63 3 l24 6 -3 232
c-2 191 -6 238 -19 264 -9 17 -14 35 -11 38 4 3 14 -15 23 -42 14 -39 18 -89
18 -274z m584 249 c-36 -69 -38 -76 -38 -167 0 -53 4 -107 8 -121 5 -14 1 -10
-7 9 -19 40 -21 143 -4 209 10 39 64 142 75 142 2 0 -14 -32 -34 -72z m-1479
30 c23 -13 45 -38 46 -53 0 -5 -10 3 -23 19 -32 39 -108 59 -151 38 -80 -38
-112 -110 -103 -226 3 -39 8 -80 12 -91 l7 -20 -13 20 c-7 11 -15 58 -17 105
-3 78 -1 90 25 140 36 70 93 102 155 88 23 -5 50 -14 62 -20z m2143 -30 c-2
-13 -4 -3 -4 22 0 25 2 35 4 23 2 -13 2 -33 0 -45z m-445 41 c-23 -4 -47 -11
-52 -14 -6 -3 -10 -2 -10 4 0 12 25 19 70 19 34 0 34 0 -8 -9z m128 -19 c28
-28 25 -38 -3 -12 -12 11 -33 26 -47 32 l-25 10 28 -5 c15 -3 36 -14 47 -25z
m1325 20 c-3 -5 -34 -9 -68 -8 l-62 1 60 7 c33 4 64 7 68 8 5 1 5 -2 2 -8z
m-5345 -10 c0 -5 -5 -10 -11 -10 -5 0 -7 5 -4 10 3 6 8 10 11 10 2 0 4 -4 4
-10z m4674 2 c2 -4 -23 -6 -57 -5 -73 4 -96 -10 -127 -79 -11 -24 -20 -35 -20
-25 0 22 44 93 67 106 21 12 130 15 137 3z m-3597 -34 c-3 -7 -5 -2 -5 12 0
14 2 19 5 13 2 -7 2 -19 0 -25z m-1420 -15 c7 -6 13 -17 13 -24 0 -8 -6 -7
-18 4 -24 22 -32 21 -32 -4 0 -11 4 -18 9 -15 4 3 6 -6 3 -19 -2 -14 -9 -25
-16 -25 -7 0 -10 20 -9 57 2 43 -1 53 -8 41 -5 -10 -15 -18 -21 -18 -6 0 -3 9
6 19 19 20 38 16 73 -16z m3620 -261 c-1 -53 -3 -7 -3 103 0 110 2 154 3 97 2
-57 2 -147 0 -200z m1452 254 c-2 -2 -13 8 -23 22 l-19 27 24 -22 c12 -12 21
-24 18 -27z m-2472 12 c-3 -8 -6 -5 -6 6 -1 11 2 17 5 13 3 -3 4 -12 1 -19z
m103 -13 c0 -5 -5 -3 -10 5 -5 8 -10 20 -10 25 0 6 5 3 10 -5 5 -8 10 -19 10
-25z m1062 -140 c2 -96 0 -175 -4 -175 -4 0 -8 79 -10 175 -2 96 0 175 4 175
4 0 8 -79 10 -175z m758 165 c0 -5 -4 -10 -10 -10 -5 0 -10 5 -10 10 0 6 5 10
10 10 6 0 10 -4 10 -10z m897 -252 c-1 -51 -3 -12 -3 87 0 99 2 141 3 93 2
-48 2 -129 0 -180z m-1297 196 c-10 -27 -19 -41 -20 -32 0 17 31 90 37 85 1
-2 -6 -25 -17 -53z m-4454 33 c7 -21 -31 -103 -57 -121 -20 -14 -58 -16 -257
-16 l-233 0 -24 25 c-14 13 -25 35 -25 48 0 25 25 60 50 70 8 3 133 6 278 6
209 1 264 -2 268 -12z m562 -9 c-6 -18 -28 -21 -28 -4 0 9 7 16 16 16 9 0 14
-5 12 -12z m345 -55 c2 -35 1 -63 -4 -63 -10 0 -15 36 -10 88 4 57 8 50 14
-25z m3831 51 c3 -9 6 -28 5 -42 -1 -26 -1 -26 -8 4 -4 17 -11 36 -15 42 -4 7
-3 12 2 12 6 0 13 -7 16 -16z m823 -301 c-1 -59 -3 -13 -3 102 0 116 2 164 3
108 2 -56 2 -151 0 -210z m-2629 261 c-3 -14 -5 -12 -10 9 -3 19 -2 25 4 19 6
-6 8 -18 6 -28z m2490 -134 c-1 -159 -6 -138 -10 42 -2 70 0 120 4 110 4 -9 6
-78 6 -152z m-551 138 c-3 -8 -6 -5 -6 6 -1 11 2 17 5 13 3 -3 4 -12 1 -19z
m-4500 -20 c-3 -8 -6 -5 -6 6 -1 11 2 17 5 13 3 -3 4 -12 1 -19z m4510 -65
c-2 -16 -4 -5 -4 22 0 28 2 40 4 28 2 -13 2 -35 0 -50z m-4050 25 c-3 -7 -5
-2 -5 12 0 14 2 19 5 13 2 -7 2 -19 0 -25z m2088 -175 c-30 -60 -68 -83 -137
-83 -43 0 -71 12 -105 44 -40 37 -24 39 17 2 34 -31 47 -36 88 -36 101 0 150
66 154 205 l2 80 3 -79 c3 -69 1 -86 -22 -133z m2232 -55 c-1 -51 -3 -12 -3
87 0 99 2 141 3 93 2 -48 2 -129 0 -180z m740 200 c-2 -13 -4 -3 -4 22 0 25 2
35 4 23 2 -13 2 -33 0 -45z m-4083 2 c4 -31 3 -40 -4 -30 -5 8 -10 30 -10 49
0 45 6 37 14 -19z m-1594 28 c0 -7 -7 -22 -15 -32 -12 -16 -15 -17 -15 -4 0
24 11 48 21 48 5 0 9 -6 9 -12z m204 -2 c-7 -19 -44 -28 -44 -11 0 12 13 19
42 24 4 0 5 -5 2 -13z m-272 -33 c-6 -2 -10 -9 -6 -14 3 -5 1 -9 -4 -9 -6 0
-19 -15 -31 -32 -22 -35 -29 -31 -10 5 17 32 40 57 53 56 6 0 6 -3 -2 -6z
m2365 -15 c-3 -8 -6 -5 -6 6 -1 11 2 17 5 13 3 -3 4 -12 1 -19z m-1640 -55
c-2 -16 -4 -5 -4 22 0 28 2 40 4 28 2 -13 2 -35 0 -50z m-697 47 c0 -5 -2 -10
-4 -10 -3 0 -8 5 -11 10 -3 6 -1 10 4 10 6 0 11 -4 11 -10z m334 2 c-6 -4 -13
-15 -17 -24 -3 -10 -11 -18 -17 -18 -6 0 -8 6 -4 13 14 25 27 37 38 37 8 0 8
-3 0 -8z m-1819 -13 c11 -17 -1 -21 -15 -4 -8 9 -8 15 -2 15 6 0 14 -5 17 -11z
m5842 5 c-3 -3 -12 -4 -19 -1 -8 3 -5 6 6 6 11 1 17 -2 13 -5z m-2644 -118
l32 -29 -32 18 c-31 18 -73 80 -73 106 1 8 10 -4 21 -26 11 -22 35 -53 52 -69z
m345 54 c-11 -22 -32 -49 -45 -60 -40 -31 -47 -23 -10 10 19 16 40 43 47 60 7
16 16 30 20 30 4 0 -1 -18 -12 -40z m2210 9 c-3 -8 -7 -3 -11 10 -4 17 -3 21
5 13 5 -5 8 -16 6 -23z m-5568 -5 c0 -8 -5 -12 -10 -9 -6 4 -17 3 -23 -2 -7
-4 -4 0 6 10 24 21 27 21 27 1z m1340 8 c0 -5 -7 -9 -15 -9 -8 0 -12 4 -9 9 3
4 9 8 15 8 5 0 9 -4 9 -8z m1494 -8 c3 -8 2 -12 -4 -9 -6 3 -10 10 -10 16 0
14 7 11 14 -7z m-1437 -10 c-3 -3 -12 -4 -19 -1 -8 3 -5 6 6 6 11 1 17 -2 13
-5z m630 -31 c-3 -10 -5 -4 -5 12 0 17 2 24 5 18 2 -7 2 -21 0 -30z m4110 -10
c-3 -10 -5 -2 -5 17 0 19 2 27 5 18 2 -10 2 -26 0 -35z m-4567 33 c0 -2 -8
-10 -17 -17 -16 -13 -17 -12 -4 4 13 16 21 21 21 13z m-1583 -28 c-3 -8 -6 -5
-6 6 -1 11 2 17 5 13 3 -3 4 -12 1 -19z m1186 7 c-3 -9 -8 -14 -10 -11 -3 3
-2 9 2 15 9 16 15 13 8 -4z m4431 -30 l17 -30 -20 24 c-12 13 -21 28 -21 34 0
12 0 11 24 -28z m388 -7 c-5 -18 -7 -19 -10 -6 -3 13 -17 18 -65 21 l-62 3 72
2 c69 2 71 1 65 -20z m-5998 -12 c-3 -9 -10 -16 -15 -16 -6 0 -5 9 1 21 13 24
24 20 14 -5z m3666 -9 c0 -5 -4 -5 -10 -2 -5 3 -10 14 -10 23 0 15 2 15 10 2
5 -8 10 -19 10 -23z m1814 -2 l17 -30 -20 24 c-12 13 -21 28 -21 34 0 12 0 11
24 -28z m366 1 c-14 -14 -38 -27 -55 -30 l-30 -6 32 12 c18 7 40 21 50 31 9 9
20 17 22 17 3 0 -6 -11 -19 -24z m-4390 4 c0 -5 -2 -10 -4 -10 -3 0 -8 5 -11
10 -3 6 -1 10 4 10 6 0 11 -4 11 -10z m507 -52 c-2 -13 -4 -3 -4 22 0 25 2 35
4 23 2 -13 2 -33 0 -45z m43 52 c0 -5 -4 -10 -10 -10 -5 0 -10 5 -10 10 0 6 5
10 10 10 6 0 10 -4 10 -10z m891 -7 c13 -16 12 -17 -3 -4 -10 7 -18 15 -18 17
0 8 8 3 21 -13z m271 -3 c26 0 58 4 72 10 16 6 26 6 26 0 0 -24 -179 -25 -203
-1 -8 8 -1 8 24 1 18 -6 55 -10 81 -10z m542 -6 c5 -14 4 -15 -9 -4 -17 14
-19 20 -6 20 5 0 12 -7 15 -16z m1571 -7 l30 -4 -31 -2 c-20 0 -37 6 -45 17
-12 15 -12 15 1 5 8 -6 29 -13 45 -16z m430 -8 l40 -6 -40 -1 c-22 -1 -51 5
-65 14 l-25 15 25 -7 c14 -4 43 -11 65 -15z m1182 -1 c-3 -8 -6 -5 -6 6 -1 11
2 17 5 13 3 -3 4 -12 1 -19z m-7003 6 c20 -8 21 -34 1 -34 -14 0 -42 -40 -28
-40 4 0 1 -5 -7 -10 -8 -5 -10 -10 -4 -10 7 0 14 -9 17 -20 4 -15 0 -20 -16
-20 -12 0 -33 -3 -46 -7 -18 -4 -22 -3 -19 8 3 8 12 13 21 13 9 -1 14 2 11 7
-3 5 4 19 16 31 12 13 19 31 16 41 -9 37 6 53 38 41z m1066 -2 c0 -5 -14 -36
-30 -70 l-31 -60 -164 -1 c-159 -2 -164 -1 -179 21 -24 34 -20 73 10 97 25 20
40 21 210 21 101 0 184 -4 184 -8z m285 -2 c3 -5 2 -10 -4 -10 -5 0 -13 5 -16
10 -3 6 -2 10 4 10 5 0 13 -4 16 -10z m4105 0 c0 -5 -5 -10 -11 -10 -5 0 -7 5
-4 10 3 6 8 10 11 10 2 0 4 -4 4 -10z m1737 4 c-3 -3 -12 -4 -19 -1 -8 3 -5 6
6 6 11 1 17 -2 13 -5z m-1935 -80 c18 -10 53 -21 78 -25 43 -6 44 -6 9 -8 -68
-2 -150 52 -149 98 1 9 7 2 15 -16 7 -17 28 -40 47 -49z m2001 69 c-7 -2 -21
-2 -30 0 -10 3 -4 5 12 5 17 0 24 -2 18 -5z m-1189 -16 c-2 -7 -14 -19 -27
-26 -21 -13 -21 -12 2 13 27 29 33 32 25 13z m-6007 -25 c-9 -2 -17 -8 -17
-13 0 -6 5 -7 10 -4 6 3 10 -1 10 -9 0 -9 -9 -16 -20 -16 -17 0 -20 6 -18 34
2 32 3 33 27 22 19 -8 21 -12 8 -14z m6973 -7 l25 -30 -27 24 c-16 14 -28 29
-28 34 0 6 1 8 3 6 1 -2 13 -17 27 -34z m-6691 -27 c-1 -40 -1 -41 -9 -15 -8
26 -4 57 6 57 2 0 4 -19 3 -42z m1051 32 c0 -5 -2 -10 -4 -10 -3 0 -8 5 -11
10 -3 6 -1 10 4 10 6 0 11 -4 11 -10z m55 0 c3 -6 -1 -7 -9 -4 -18 7 -21 14
-7 14 6 0 13 -4 16 -10z m4245 -26 c0 -2 -13 2 -30 11 -16 9 -30 18 -30 21 0
2 14 -2 30 -11 17 -9 30 -18 30 -21z m-4443 -54 c29 -23 50 -47 47 -51 -3 -5
1 -7 8 -4 13 5 117 -79 108 -87 -19 -17 -212 -139 -227 -144 -10 -3 23 21 72
54 50 33 100 69 113 79 l23 19 -43 34 c-24 19 -49 34 -55 32 -7 -2 -13 3 -13
9 0 7 -15 25 -32 41 -30 26 -33 27 -40 11 -7 -14 -7 -12 -4 6 3 17 -1 25 -15
28 -10 3 -19 10 -19 17 -1 16 -37 -65 -71 -159 -16 -44 -36 -93 -43 -110 -19
-43 -29 -88 -17 -81 5 4 7 -3 3 -16 -3 -14 -2 -19 6 -14 7 4 12 5 12 2 0 -17
-22 -13 -29 6 -9 21 -10 21 -10 2 -2 -41 18 -43 77 -8 31 19 61 34 66 34 10 0
-35 -30 -98 -64 -34 -19 -56 -7 -56 28 0 20 118 344 141 388 9 17 13 18 27 6
9 -8 41 -34 69 -58z m2848 60 c3 -6 -1 -7 -9 -4 -18 7 -21 14 -7 14 6 0 13 -4
16 -10z m1865 -25 c-14 -8 -38 -14 -55 -14 -26 1 -24 2 15 13 61 18 70 18 40
1z m426 -12 c-10 -10 -19 5 -10 18 6 11 8 11 12 0 2 -7 1 -15 -2 -18z m-551
-4 c12 -5 2 -6 -25 -2 -25 3 -54 10 -65 14 -12 5 -2 6 25 2 25 -3 54 -10 65
-14z m515 7 c8 -2 -13 -4 -47 -5 -35 0 -63 2 -63 7 0 7 76 5 110 -2z m320 10
c0 -3 -4 -8 -10 -11 -5 -3 -10 -1 -10 4 0 6 5 11 10 11 6 0 10 -2 10 -4z m127
-2 c-3 -3 -12 -4 -19 -1 -8 3 -5 6 6 6 11 1 17 -2 13 -5z m323 -4 c11 -8 7 -9
-15 -4 -37 8 -45 14 -19 14 10 0 26 -5 34 -10z m135 0 c-3 -5 -16 -10 -28 -9
-21 0 -21 1 -2 9 28 12 37 12 30 0z m-1812 -7 c-7 -2 -21 -2 -30 0 -10 3 -4 5
12 5 17 0 24 -2 18 -5z m1750 0 c-7 -2 -21 -2 -30 0 -10 3 -4 5 12 5 17 0 24
-2 18 -5z m-7136 -40 c-3 -10 -5 -4 -5 12 0 17 2 24 5 18 2 -7 2 -21 0 -30z
m-20 5 c-3 -8 -6 -5 -6 6 -1 11 2 17 5 13 3 -3 4 -12 1 -19z m250 -40 c-2 -13
-4 -3 -4 22 0 25 2 35 4 23 2 -13 2 -33 0 -45z m20 -60 c-2 -24 -4 -5 -4 42 0
47 2 66 4 43 2 -24 2 -62 0 -85z m870 90 c-3 -8 -6 -5 -6 6 -1 11 2 17 5 13 3
-3 4 -12 1 -19z m-1232 -18 c13 -5 1 -6 -32 -3 -40 4 -56 2 -68 -11 -9 -9 -24
-16 -33 -16 -14 1 -12 5 7 20 25 21 88 26 126 10z m65 -10 c0 -5 -6 -10 -14
-10 -8 0 -18 5 -21 10 -3 6 3 10 14 10 12 0 21 -4 21 -10z m-267 -30 c9 0 17
-4 17 -10 0 -5 -16 -10 -35 -10 -24 0 -35 -5 -35 -15 0 -8 5 -15 11 -15 5 0 7
-4 4 -10 -14 -22 -25 -8 -25 31 0 38 2 41 23 35 12 -3 30 -6 40 -6z m274 -12
c-3 -8 -6 -5 -6 6 -1 11 2 17 5 13 3 -3 4 -12 1 -19z m33 12 c0 -5 -2 -10 -4
-10 -3 0 -8 5 -11 10 -3 6 -1 10 4 10 6 0 11 -4 11 -10z m1072 -78 c-8 -22
-21 6 -14 31 5 20 6 20 12 1 4 -10 5 -25 2 -32z m-1363 29 c12 -8 12 -12 3
-24 -7 -8 -11 -19 -10 -25 2 -5 -1 -10 -7 -11 -5 -1 -11 4 -11 9 -1 6 -3 12
-4 15 -5 10 -6 30 -3 38 5 9 15 9 32 -2z m258 -13 c-3 -8 -6 -5 -6 6 -1 11 2
17 5 13 3 -3 4 -12 1 -19z m270 -40 c-3 -7 -5 -2 -5 12 0 14 2 19 5 13 2 -7 2
-19 0 -25z m1880 -25 c-3 -10 -5 -2 -5 17 0 19 2 27 5 18 2 -10 2 -26 0 -35z
m-1850 -10 c-3 -10 -5 -2 -5 17 0 19 2 27 5 18 2 -10 2 -26 0 -35z m2805 -115
c26 -67 46 -123 44 -125 -2 -2 -25 50 -51 116 l-47 120 -91 4 -92 3 95 2 95 2
47 -122z m658 -298 l0 -420 -62 2 -63 2 58 3 57 4 0 410 0 410 -87 -3 -88 -3
-49 -123 c-27 -67 -51 -120 -53 -118 -2 2 15 50 37 107 23 57 46 114 51 127 8
21 14 22 104 22 l95 0 0 -420z m-3743 378 c-3 -8 -6 -5 -6 6 -1 11 2 17 5 13
3 -3 4 -12 1 -19z m250 -40 c-2 -13 -4 -3 -4 22 0 25 2 35 4 23 2 -13 2 -33 0
-45z m1872 -402 c-9 -8 -10 -6 -5 7 3 10 7 118 8 240 l3 222 2 -229 c3 -165 0
-233 -8 -240z m738 -138 c-1 -112 -2 -21 -2 202 0 223 1 314 2 203 2 -112 2
-294 0 -405z m-2870 530 c-3 -8 -6 -5 -6 6 -1 11 2 17 5 13 3 -3 4 -12 1 -19z
m100 -215 c59 -174 175 -324 339 -442 48 -33 82 -61 77 -61 -6 0 -22 9 -36 20
-14 11 -30 20 -36 20 -5 0 -14 6 -18 13 -4 7 -21 21 -38 32 -76 48 -245 249
-245 291 0 8 -4 14 -9 14 -10 0 -71 181 -70 207 1 16 2 15 6 -2 3 -11 16 -53
30 -92z m4056 100 c-7 -2 -21 -2 -30 0 -10 3 -4 5 12 5 17 0 24 -2 18 -5z
m702 -8 c-33 -7 -62 -12 -64 -10 -6 7 63 23 94 23 18 0 7 -5 -30 -13z m690 6
c35 -7 32 -8 -27 -7 -36 0 -64 4 -62 8 6 10 37 9 89 -1z m1338 2 c-13 -2 -33
-2 -45 0 -13 2 -3 4 22 4 25 0 35 -2 23 -4z m710 0 c-7 -2 -19 -2 -25 0 -7 3
-2 5 12 5 14 0 19 -2 13 -5z m24 -55 c-2 -13 -4 -3 -4 22 0 25 2 35 4 23 2
-13 2 -33 0 -45z m-3524 45 c-7 -2 -19 -2 -25 0 -7 3 -2 5 12 5 14 0 19 -2 13
-5z m172 -3 c13 -5 14 -9 5 -9 -8 0 -24 4 -35 9 -13 5 -14 9 -5 9 8 0 24 -4
35 -9z m415 -7 c0 -12 -3 -14 -8 -6 -4 7 -37 14 -72 16 l-65 3 73 2 c63 2 72
0 72 -15z m345 -24 c6 -6 -9 -2 -33 9 -55 25 -69 39 -17 18 22 -10 45 -22 50
-27z m1118 34 c-13 -2 -35 -2 -50 0 -16 2 -5 4 22 4 28 0 40 -2 28 -4z m210 0
c-7 -2 -21 -2 -30 0 -10 3 -4 5 12 5 17 0 24 -2 18 -5z m90 0 c-13 -2 -35 -2
-50 0 -16 2 -5 4 22 4 28 0 40 -2 28 -4z m865 0 c-10 -2 -26 -2 -35 0 -10 3
-2 5 17 5 19 0 27 -2 18 -5z m95 0 c-7 -2 -21 -2 -30 0 -10 3 -4 5 12 5 17 0
24 -2 18 -5z m-3354 -7 c-7 -7 -79 -35 -79 -31 0 7 54 34 69 35 8 0 12 -2 10
-4z m1986 -6 c-3 -5 -12 -10 -18 -10 -7 0 -6 4 3 10 19 12 23 12 15 0z m955 0
c13 -8 13 -10 -2 -10 -9 0 -20 5 -23 10 -8 13 5 13 25 0z m-2443 -437 c-1 -82
-3 -15 -3 147 0 162 2 229 3 148 2 -82 2 -214 0 -295z m233 427 c0 -5 -5 -10
-11 -10 -5 0 -7 5 -4 10 3 6 8 10 11 10 2 0 4 -4 4 -10z m870 -5 c14 -8 21
-14 15 -14 -5 0 -21 6 -35 14 -14 8 -20 14 -15 14 6 0 21 -6 35 -14z m667 -17
c-3 -7 -5 -2 -5 12 0 14 2 19 5 13 2 -7 2 -19 0 -25z m1163 18 c0 -2 -8 -10
-17 -17 -16 -13 -17 -12 -4 4 13 16 21 21 21 13z m-1023 -28 c-3 -8 -6 -5 -6
6 -1 11 2 17 5 13 3 -3 4 -12 1 -19z m950 0 c-3 -8 -6 -5 -6 6 -1 11 2 17 5
13 3 -3 4 -12 1 -19z m-3466 -24 c-11 -15 -21 -24 -21 -20 0 10 34 55 39 51 2
-2 -6 -16 -18 -31z m447 -18 c15 -27 17 -67 18 -281 l1 -250 -6 250 c-5 182
-10 258 -20 278 -8 15 -18 27 -22 27 -4 0 -10 7 -13 16 -11 28 22 -4 42 -40z
m681 12 c12 -21 20 -38 18 -38 -7 0 -47 65 -47 75 0 10 1 8 29 -37z m-1989
-98 c5 -19 5 -28 -1 -25 -5 4 -9 12 -9 19 0 8 -11 39 -25 70 -14 31 -25 60
-24 64 1 10 49 -93 59 -128z m366 88 c-19 -27 -21 -19 -4 18 7 14 14 21 16 15
2 -6 -4 -21 -12 -33z m-446 -248 l0 -280 -22 1 c-17 1 -19 2 -5 6 16 4 17 26
17 279 0 151 2 274 5 274 3 0 5 -126 5 -280z m2711 263 c13 -16 12 -17 -3 -4
-10 7 -18 15 -18 17 0 8 8 3 21 -13z m-2542 -23 c11 -24 11 -24 -3 -6 -9 11
-16 24 -16 30 0 12 5 7 19 -24z m402 7 c-10 -9 -11 -8 -5 6 3 10 9 15 12 12 3
-3 0 -11 -7 -18z m1692 -2 c-3 -9 -8 -14 -10 -11 -3 3 -2 9 2 15 9 16 15 13 8
-4z m-1090 -2 c-18 -2 -48 -2 -65 0 -18 2 -4 4 32 4 36 0 50 -2 33 -4z m1376
-2 c10 -6 -1 -8 -30 -4 -24 3 -46 7 -48 9 -10 9 65 3 78 -5z m908 -133 c-2
-29 -3 -8 -3 47 0 55 1 79 3 53 2 -26 2 -71 0 -100z m-1562 122 c3 -6 -1 -7
-9 -4 -18 7 -21 14 -7 14 6 0 13 -4 16 -10z m1006 -17 c-12 -20 -14 -14 -5 12
4 9 9 14 11 11 3 -2 0 -13 -6 -23z m-2351 -18 c-6 -15 -13 -25 -16 -23 -2 3 1
17 7 32 16 34 23 27 9 -9z m67 -347 c-1 -73 -3 -16 -3 127 0 143 2 203 3 133
2 -70 2 -187 0 -260z m1783 378 c0 -2 -8 -10 -17 -17 -16 -13 -17 -12 -4 4 13
16 21 21 21 13z m-5434 -24 c-10 -2 -22 0 -28 6 -6 6 0 7 19 4 21 -5 23 -7 9
-10z m311 -4 c-3 -8 -6 -5 -6 6 -1 11 2 17 5 13 3 -3 4 -12 1 -19z m53 11 c0
-5 -4 -7 -10 -4 -5 3 -10 1 -10 -6 0 -7 -3 -10 -6 -6 -8 7 4 27 17 27 5 0 9
-5 9 -11z m3939 -43 c-1 -17 -2 -16 -9 6 -4 14 -11 32 -15 40 -3 7 1 4 9 -6 9
-11 16 -29 15 -40z m671 23 c15 -28 5 -23 -15 7 -9 15 -12 23 -6 20 6 -4 16
-16 21 -27z m2060 -22 c0 -12 0 -11 -24 28 l-17 30 20 -24 c12 -13 21 -28 21
-34z m-399 20 c-10 -9 -11 -8 -5 6 3 10 9 15 12 12 3 -3 0 -11 -7 -18z m-3397
-37 c5 -17 4 -20 -2 -10 -5 8 -13 26 -16 40 -5 17 -4 20 2 10 5 -8 13 -26 16
-40z m2403 18 c-3 -7 -5 -2 -5 12 0 14 2 19 5 13 2 -7 2 -19 0 -25z m1523 -3
c0 -5 -5 -3 -10 5 -5 8 -10 20 -10 25 0 6 5 3 10 -5 5 -8 10 -19 10 -25z
m-3733 -43 c-12 -34 -25 -62 -29 -62 -3 0 5 29 20 65 32 82 40 79 9 -3z m566
61 c-13 -2 -35 -2 -50 0 -16 2 -5 4 22 4 28 0 40 -2 28 -4z m1294 1 c-3 -3
-12 -4 -19 -1 -8 3 -5 6 6 6 11 1 17 -2 13 -5z m490 -26 c-3 -7 -5 -2 -5 12 0
14 2 19 5 13 2 -7 2 -19 0 -25z m976 7 c-3 -9 -8 -14 -10 -11 -3 3 -2 9 2 15
9 16 15 13 8 -4z m-425 -20 c-3 -3 -9 2 -12 12 -6 14 -5 15 5 6 7 -7 10 -15 7
-18z m-2779 -24 c-6 -18 -13 -30 -15 -28 -2 2 1 18 7 36 6 18 13 30 15 28 2
-2 -1 -18 -7 -36z m2351 -1 c-5 -22 -8 -27 -9 -13 -1 21 9 56 14 51 2 -2 0
-19 -5 -38z m-763 -52 c-2 -18 -4 -6 -4 27 0 33 2 48 4 33 2 -15 2 -42 0 -60z
m-410 -230 c-1 -57 -3 -11 -3 102 0 113 2 159 3 103 2 -57 2 -149 0 -205z
m270 270 c-3 -7 -5 -2 -5 12 0 14 2 19 5 13 2 -7 2 -19 0 -25z m780 -45 c-2
-16 -4 -3 -4 27 0 30 2 43 4 28 2 -16 2 -40 0 -55z m270 55 c-3 -8 -6 -5 -6 6
-1 11 2 17 5 13 3 -3 4 -12 1 -19z m-4051 -3 c-17 -13 -123 -15 -765 -13
l-746 3 752 5 c413 3 755 8 759 13 4 4 10 7 13 7 3 0 -3 -7 -13 -15z m1264
-30 c0 -5 -5 -3 -10 5 -5 8 -10 20 -10 25 0 6 5 3 10 -5 5 -8 10 -19 10 -25z
m-2933 -7 c-3 -8 -6 -5 -6 6 -1 11 2 17 5 13 3 -3 4 -12 1 -19z m5710 0 c-3
-8 -6 -5 -6 6 -1 11 2 17 5 13 3 -3 4 -12 1 -19z m1140 -10 c-3 -7 -5 -2 -5
12 0 14 2 19 5 13 2 -7 2 -19 0 -25z m260 -5 c-3 -10 -5 -4 -5 12 0 17 2 24 5
18 2 -7 2 -21 0 -30z m-7522 9 c-3 -3 -11 0 -18 7 -9 10 -8 11 6 5 10 -3 15
-9 12 -12z m522 12 c-3 -3 -12 -4 -19 -1 -8 3 -5 6 6 6 11 1 17 -2 13 -5z
m3811 -1 c-21 -2 -57 -2 -80 0 -24 2 -7 4 37 4 44 0 63 -2 43 -4z m1335 0
c-18 -2 -48 -2 -65 0 -18 2 -4 4 32 4 36 0 50 -2 33 -4z m-2062 -30 c-12 -20
-14 -14 -5 12 4 9 9 14 11 11 3 -2 0 -13 -6 -23z m562 20 c-7 -2 -19 -2 -25 0
-7 3 -2 5 12 5 14 0 19 -2 13 -5z m1350 0 c-7 -2 -19 -2 -25 0 -7 3 -2 5 12 5
14 0 19 -2 13 -5z m-3303 -7 c0 -2 -6 -9 -14 -15 -11 -9 -16 -9 -22 0 -4 7 -3
9 4 5 6 -3 13 -2 17 4 6 10 15 14 15 6z m1907 -2 c-3 -3 -12 -4 -19 -1 -8 3
-5 6 6 6 11 1 17 -2 13 -5z m-1898 -30 c-20 -24 -89 -54 -124 -53 -23 1 -17 4
22 13 52 13 80 29 96 54 5 8 11 11 14 8 3 -3 0 -13 -8 -22z m1021 11 c0 -8 -2
-15 -4 -15 -2 0 -6 7 -10 15 -3 8 -1 15 4 15 6 0 10 -7 10 -15z m824 -6 c-10
-11 -28 -25 -39 -30 -11 -6 -4 4 15 21 40 35 52 39 24 9z m2053 -1 c-3 -8 -6
-5 -6 6 -1 11 2 17 5 13 3 -3 4 -12 1 -19z m560 -25 c-3 -10 -5 -2 -5 17 0 19
2 27 5 18 2 -10 2 -26 0 -35z m-3297 -19 c11 -31 19 -59 16 -61 -2 -2 -11 15
-19 39 -8 24 -18 51 -22 61 -4 9 -5 17 -2 17 3 0 15 -25 27 -56z m-2905 36 c3
-5 2 -10 -4 -10 -5 0 -13 5 -16 10 -3 6 -2 10 4 10 5 0 13 -4 16 -10z m2988
-15 c-3 -9 -8 -14 -10 -11 -3 3 -2 9 2 15 9 16 15 13 8 -4z m119 -7 c-7 -7
-12 -8 -12 -2 0 6 3 14 7 17 3 4 9 5 12 2 2 -3 -1 -11 -7 -17z m1774 -16 c-18
-16 -18 -16 -6 6 6 13 14 21 18 18 3 -4 -2 -14 -12 -24z m761 -4 c-3 -7 -5 -2
-5 12 0 14 2 19 5 13 2 -7 2 -19 0 -25z m305 -10 c-6 -6 -7 0 -4 19 5 21 7 23
10 9 2 -10 0 -22 -6 -28z m-2157 22 c-11 -5 -33 -8 -50 -8 -29 1 -29 1 5 8 49
10 69 10 45 0z m2828 3 c-24 -2 -62 -2 -85 0 -24 2 -5 4 42 4 47 0 66 -2 43
-4z m-3823 -38 c0 -5 -5 -3 -10 5 -5 8 -10 20 -10 25 0 6 5 3 10 -5 5 -8 10
-19 10 -25z m2287 29 c-3 -3 -12 -4 -19 -1 -8 3 -5 6 6 6 11 1 17 -2 13 -5z
m1260 -26 c-3 -8 -6 -5 -6 6 -1 11 2 17 5 13 3 -3 4 -12 1 -19z m-4774 5 c-7
-2 -19 -2 -25 0 -7 3 -2 5 12 5 14 0 19 -2 13 -5z m3174 -55 c-2 -13 -4 -3 -4
22 0 25 2 35 4 23 2 -13 2 -33 0 -45z m510 30 c-3 -7 -5 -2 -5 12 0 14 2 19 5
13 2 -7 2 -19 0 -25z m1790 -150 c-2 -35 -3 -7 -3 62 0 69 1 97 3 63 2 -35 2
-91 0 -125z m-2186 131 c-6 -24 -9 -28 -10 -12 -1 24 9 56 16 50 2 -3 0 -20
-6 -38z m-3578 6 c-10 -13 -24 -27 -31 -30 -8 -3 -3 8 10 24 28 36 46 41 21 6z
m1798 -2 c-12 -20 -14 -14 -5 12 4 9 9 14 11 11 3 -2 0 -13 -6 -23z m2617 -58
c16 -19 16 -19 -1 -6 -21 16 -47 63 -47 83 1 7 8 -3 16 -22 8 -19 23 -43 32
-55z m-4188 54 c-7 -11 -14 -18 -17 -15 -3 3 0 12 7 21 18 21 23 19 10 -6z
m4007 -1 c-3 -8 -6 -5 -6 6 -1 11 2 17 5 13 3 -3 4 -12 1 -19z m-1615 -30 c-8
-8 -9 -4 -5 13 4 13 8 18 11 10 2 -7 -1 -18 -6 -23z m-1067 -21 c8 -20 13 -37
10 -37 -5 0 -35 67 -35 78 0 11 10 -5 25 -41z m678 -2 c5 -28 4 -34 -3 -20 -8
19 -14 73 -6 64 2 -2 6 -22 9 -44z m-452 8 c-12 -20 -14 -14 -5 12 4 9 9 14
11 11 3 -2 0 -13 -6 -23z m-1582 -5 c-5 -10 -11 -18 -12 -18 -2 0 -3 8 -3 18
0 10 6 19 13 19 8 0 9 -6 2 -19z m5249 15 c-15 -2 -42 -2 -60 0 -18 2 -6 4 27
4 33 0 48 -2 33 -4z m43 -27 c-14 -36 -22 -33 -9 5 6 16 12 28 14 26 3 -2 0
-16 -5 -31z m-5551 11 c0 -2 -10 -12 -22 -23 l-23 -19 19 23 c18 21 26 27 26
19z m3637 -19 c-3 -8 -6 -5 -6 6 -1 11 2 17 5 13 3 -3 4 -12 1 -19z m956 -25
c-7 -2 -19 -2 -25 0 -7 3 -2 5 12 5 14 0 19 -2 13 -5z m-2933 -57 c0 -18 -17
8 -24 34 l-7 25 15 -25 c9 -14 15 -29 16 -34z m-3055 -15 c-7 -6 -34 19 -47
43 -8 15 -3 13 20 -9 17 -16 29 -31 27 -34z m3958 52 c-7 -2 -19 -2 -25 0 -7
3 -2 5 12 5 14 0 19 -2 13 -5z m1807 -13 c13 -11 19 -20 13 -20 -5 0 -18 9
-28 20 -10 11 -16 20 -13 20 3 0 15 -9 28 -20z m-5880 3 c-8 -2 -32 -11 -52
-19 -21 -7 -38 -10 -38 -5 0 9 56 29 85 29 13 0 15 -1 5 -5z m1774 -30 c9 -18
14 -33 12 -33 -6 0 -36 55 -36 66 0 11 5 3 24 -33z m2060 21 c3 -8 2 -12 -4
-9 -6 3 -10 10 -10 16 0 14 7 11 14 -7z m2366 3 c0 -2 -10 -12 -22 -23 l-23
-19 19 23 c18 21 26 27 26 19z m47 -84 c-2 -16 -4 -3 -4 27 0 30 2 43 4 28 2
-16 2 -40 0 -55z m377 48 c-2 -3 -12 3 -22 13 -16 17 -16 18 5 5 12 -7 20 -15
17 -18z m-2759 9 c3 -5 1 -10 -4 -10 -6 0 -11 5 -11 10 0 6 2 10 4 10 3 0 8
-4 11 -10z m1682 -37 c-3 -10 -5 -2 -5 17 0 19 2 27 5 18 2 -10 2 -26 0 -35z
m-4177 32 c0 -6 -56 -35 -67 -35 -4 1 8 9 27 20 39 22 40 22 40 15z m1924 -29
c-5 -12 -18 -16 -63 -14 l-56 2 53 3 c35 3 55 9 59 19 3 8 7 13 9 11 3 -2 2
-12 -2 -21z m2651 14 c3 -5 2 -10 -4 -10 -5 0 -13 5 -16 10 -3 6 -2 10 4 10 5
0 13 -4 16 -10z m-5770 -41 c16 -19 13 -18 -17 5 -21 16 -38 30 -38 33 0 8 36
-16 55 -38z m347 16 c31 -14 88 -34 129 -45 41 -10 64 -19 52 -19 -31 -1 -179
47 -216 70 -44 26 -30 24 35 -6z m4743 5 c3 -6 -1 -7 -9 -4 -18 7 -21 14 -7
14 6 0 13 -4 16 -10z m1122 -22 c-3 -7 -5 -2 -5 12 0 14 2 19 5 13 2 -7 2 -19
0 -25z m-3524 15 c-13 -2 -35 -2 -50 0 -16 2 -5 4 22 4 28 0 40 -2 28 -4z
m1640 0 c-7 -2 -19 -2 -25 0 -7 3 -2 5 12 5 14 0 19 -2 13 -5z m70 0 c-7 -2
-19 -2 -25 0 -7 3 -2 5 12 5 14 0 19 -2 13 -5z m54 1 c-3 -3 -12 -4 -19 -1 -8
3 -5 6 6 6 11 1 17 -2 13 -5z m320 0 c-3 -3 -12 -4 -19 -1 -8 3 -5 6 6 6 11 1
17 -2 13 -5z m1131 -1 c-10 -2 -28 -2 -40 0 -13 2 -5 4 17 4 22 1 32 -1 23 -4z
m-4818 -18 c-14 -8 -29 -14 -35 -14 -5 0 1 6 15 14 14 8 30 14 35 14 6 0 -1
-6 -15 -14z m2767 9 c-3 -3 -12 -4 -19 -1 -8 3 -5 6 6 6 11 1 17 -2 13 -5z
m1346 -1 c-7 -2 -21 -2 -30 0 -10 3 -4 5 12 5 17 0 24 -2 18 -5z m1445 0 c-10
-2 -26 -2 -35 0 -10 3 -2 5 17 5 19 0 27 -2 18 -5z m-5643 -38 c-22 -8 -49
-13 -60 -13 -11 0 0 6 25 13 59 17 87 17 35 0z m665 -29 c0 -12 -5 -7 -19 24
-11 24 -11 24 3 6 9 -11 16 -24 16 -30z m-1626 18 c3 -8 2 -12 -4 -9 -6 3 -10
-2 -10 -11 0 -10 -3 -15 -6 -11 -6 5 4 47 11 47 1 0 6 -7 9 -16z m791 -19 c19
-7 -210 -3 -240 4 -16 4 29 5 100 3 72 -2 135 -5 140 -7z m73 8 c-10 -2 -28
-2 -40 0 -13 2 -5 4 17 4 22 1 32 -1 23 -4z m4825 -10 c-7 -2 -19 -2 -25 0 -7
3 -2 5 12 5 14 0 19 -2 13 -5z m-4072 -36 c-10 -9 -11 -8 -5 6 3 10 9 15 12
12 3 -3 0 -11 -7 -18z m-1644 -9 c-3 -8 -6 -5 -6 6 -1 11 2 17 5 13 3 -3 4
-12 1 -19z m5916 -25 c-7 -2 -19 -2 -25 0 -7 3 -2 5 12 5 14 0 19 -2 13 -5z
m-228 -23 c10 -11 16 -20 13 -20 -3 0 -13 9 -23 20 -10 11 -16 20 -13 20 3 0
13 -9 23 -20z m-4520 0 c-3 -5 -12 -10 -18 -10 -7 0 -6 4 3 10 19 12 23 12 15
0z m-1188 -22 c-3 -8 -6 -5 -6 6 -1 11 2 17 5 13 3 -3 4 -12 1 -19z m1040 -75
c-3 -10 -5 -2 -5 17 0 19 2 27 5 18 2 -10 2 -26 0 -35z m483 43 c0 -2 -8 -10
-17 -17 -16 -13 -17 -12 -4 4 13 16 21 21 21 13z m4317 -12 c-3 -3 -12 -4 -19
-1 -8 3 -5 6 6 6 11 1 17 -2 13 -5z m-4452 -22 c-3 -3 -11 0 -18 7 -9 10 -8
11 6 5 10 -3 15 -9 12 -12z m90 -2 c-3 -5 -12 -10 -18 -10 -7 0 -6 4 3 10 19
12 23 12 15 0z m-1441 -48 c-4 -6 -53 32 -54 41 0 5 13 -2 29 -15 15 -13 27
-25 25 -26z m993 -34 c-3 -7 -5 -2 -5 12 0 14 2 19 5 13 2 -7 2 -19 0 -25z
m-911 -4 c18 -14 18 -14 -6 -3 -31 14 -36 19 -24 19 6 0 19 -7 30 -16z m154
-39 c-7 -8 -20 -15 -29 -15 -11 0 -8 5 9 14 33 19 35 19 20 1z m673 -92 c-7
-2 -21 -2 -30 0 -10 3 -4 5 12 5 17 0 24 -2 18 -5z m-136 -9 c-3 -3 -12 -4
-19 -1 -8 3 -5 6 6 6 11 1 17 -2 13 -5z"/>
<path d="M3655 6648 c-16 -11 -21 -17 -10 -13 11 4 29 7 40 7 15 -1 16 1 6 8
-11 6 -9 9 10 13 18 3 19 4 4 5 -11 0 -33 -9 -50 -20z"/>
<path d="M3610 6610 c-8 -5 -12 -12 -9 -15 4 -3 12 1 19 10 14 17 11 19 -10 5z"/>
<path d="M3760 6612 c0 -16 40 -26 54 -12 8 8 7 10 -7 4 -9 -3 -24 -1 -32 6
-9 8 -15 8 -15 2z"/>
<path d="M3810 6576 l-25 -14 26 1 c14 1 26 8 26 15 0 6 -1 12 -1 12 -1 -1
-12 -7 -26 -14z"/>
<path d="M3576 6571 c-3 -5 1 -11 9 -14 9 -4 12 -1 8 9 -6 16 -10 17 -17 5z"/>
<path d="M3660 6569 c0 -5 5 -7 10 -4 6 3 10 8 10 11 0 2 -4 4 -10 4 -5 0 -10
-5 -10 -11z"/>
<path d="M3846 6555 c-3 -8 -1 -15 3 -15 5 0 11 7 15 15 3 8 1 15 -3 15 -5 0
-11 -7 -15 -15z"/>
<path d="M3740 6551 c0 -6 5 -13 10 -16 6 -3 10 1 10 9 0 9 -4 16 -10 16 -5 0
-10 -4 -10 -9z"/>
<path d="M3880 6541 c0 -5 7 -15 17 -22 15 -13 15 -12 4 9 -12 23 -21 28 -21
13z"/>
<path d="M3525 6509 c-4 -6 -5 -12 -2 -15 2 -3 7 2 10 11 7 17 1 20 -8 4z"/>
<path d="M3550 6498 c-12 -22 -12 -22 6 -6 10 10 15 20 12 24 -4 3 -12 -5 -18
-18z"/>
<path d="M3586 6504 c-3 -9 -3 -21 1 -27 4 -7 0 -8 -13 -3 -11 4 -3 -9 20 -33
22 -22 42 -38 45 -35 3 3 -7 16 -24 29 -16 13 -27 27 -23 30 8 9 70 -46 66
-59 -2 -6 11 -26 29 -44 18 -18 33 -29 33 -24 0 4 -6 14 -12 20 -10 10 -10 15
2 22 8 6 21 8 28 5 6 -2 12 0 12 5 0 13 -37 13 -45 0 -3 -5 -11 -10 -16 -10
-6 0 -7 5 -3 12 4 6 3 8 -3 5 -6 -4 -14 4 -17 19 -4 14 -22 34 -42 46 -26 15
-33 25 -29 39 8 23 0 25 -9 3z"/>
<path d="M3840 6510 c0 -5 7 -10 15 -10 8 0 15 5 15 10 0 6 -7 10 -15 10 -8 0
-15 -4 -15 -10z"/>
<path d="M3677 6490 c-4 -17 -11 -20 -29 -15 -19 5 -20 4 -6 -5 10 -6 22 -18
28 -28 9 -15 10 -14 5 5 -4 15 0 25 12 32 13 7 15 13 7 21 -8 8 -13 6 -17 -10z"/>
<path d="M3880 6490 c0 -5 5 -10 10 -10 6 0 10 -4 10 -10 0 -5 -7 -7 -15 -4
-8 4 -15 1 -15 -5 0 -6 6 -11 14 -11 12 0 12 -4 0 -29 -8 -16 -21 -34 -29 -41
-8 -7 -15 -17 -15 -22 0 -16 49 48 64 83 11 27 11 35 1 46 -16 16 -25 17 -25
3z"/>
<path d="M3846 6473 c-4 -9 0 -23 7 -31 12 -11 14 -9 13 17 -1 34 -10 40 -20
14z"/>
<path d="M3840 6404 c0 -8 5 -12 10 -9 6 4 8 11 5 16 -9 14 -15 11 -15 -7z"/>
<path d="M3757 6386 c-7 -19 11 -32 24 -19 6 6 5 14 -4 22 -12 9 -16 8 -20 -3z"/>
<path d="M3800 6390 c0 -5 4 -10 9 -10 6 0 13 5 16 10 3 6 -1 10 -9 10 -9 0
-16 -4 -16 -10z"/>
<path d="M3720 6366 c0 -2 7 -9 15 -16 13 -11 14 -10 9 4 -5 14 -24 23 -24 12z"/>
<path d="M3806 6351 c-4 -5 -2 -12 3 -15 5 -4 12 -2 15 3 4 5 2 12 -3 15 -5 4
-12 2 -15 -3z"/>
<path d="M3740 6316 c4 -4 16 -4 26 2 16 9 14 10 -8 9 -15 -1 -23 -6 -18 -11z"/>
<path d="M2538 6573 c7 -3 16 -2 19 1 4 3 -2 6 -13 5 -11 0 -14 -3 -6 -6z"/>
<path d="M3060 6574 c58 -8 148 -8 143 -1 -2 4 -41 6 -86 6 -45 -1 -71 -3 -57
-5z"/>
<path d="M1795 6560 c-3 -6 1 -7 9 -4 18 7 21 14 7 14 -6 0 -13 -4 -16 -10z"/>
<path d="M3260 6520 c0 -5 7 -10 15 -10 11 0 14 -7 10 -27 -4 -21 -3 -23 3 -9
6 14 11 16 16 7 5 -7 1 -20 -8 -30 -9 -10 -16 -21 -16 -25 0 -4 11 5 23 20 23
26 23 28 5 46 -10 10 -18 23 -18 28 0 6 -7 10 -15 10 -8 0 -15 -4 -15 -10z"/>
<path d="M3310 6510 c6 -11 13 -20 16 -20 2 0 0 9 -6 20 -6 11 -13 20 -16 20
-2 0 0 -9 6 -20z"/>
<path d="M1729 6498 c-11 -20 -10 -21 3 -11 8 7 18 10 22 6 4 -4 4 0 0 10 -8
22 -11 22 -25 -5z"/>
<path d="M2578 6473 c12 -2 32 -2 45 0 12 2 2 4 -23 4 -25 0 -35 -2 -22 -4z"/>
<path d="M2778 6473 c7 -3 16 -2 19 1 4 3 -2 6 -13 5 -11 0 -14 -3 -6 -6z"/>
<path d="M2963 6473 c48 -2 126 -2 175 0 48 1 8 3 -88 3 -96 0 -136 -2 -87 -3z"/>
<path d="M3230 6462 c0 -6 5 -14 11 -17 6 -4 14 -17 19 -29 6 -14 9 -16 9 -5
1 9 -8 26 -19 39 -11 13 -20 18 -20 12z"/>
<path d="M1801 6424 c0 -11 3 -14 6 -6 3 7 2 16 -1 19 -3 4 -6 -2 -5 -13z"/>
<path d="M1803 6360 c0 -25 2 -35 4 -22 2 12 2 32 0 45 -2 12 -4 2 -4 -23z"/>
<path d="M1803 6145 c0 -38 2 -53 4 -32 2 20 2 52 0 70 -2 17 -4 1 -4 -38z"/>
<path d="M1722 5940 c0 -14 2 -19 5 -12 2 6 2 18 0 25 -3 6 -5 1 -5 -13z"/>
<path d="M1640 5875 c-7 -9 -11 -17 -9 -20 3 -2 10 5 17 15 14 24 10 26 -8 5z"/>
<path d="M1656 5853 c-4 -9 -4 -14 0 -10 4 4 14 1 23 -6 14 -11 15 -10 1 8 -8
11 -15 21 -16 23 -1 2 -5 -5 -8 -15z"/>
<path d="M1356 5829 c6 -10 54 -17 59 -9 3 4 -11 10 -29 12 -19 2 -33 1 -30
-3z"/>
<path d="M1330 5811 c0 -5 5 -13 10 -16 6 -3 10 -2 10 4 0 5 -4 13 -10 16 -5
3 -10 2 -10 -4z"/>
<path d="M1453 5803 c9 -2 25 -2 35 0 9 3 1 5 -18 5 -19 0 -27 -2 -17 -5z"/>
<path d="M1560 5790 c-13 -8 -12 -10 3 -10 9 0 17 5 17 10 0 12 -1 12 -20 0z"/>
<path d="M1468 5783 c6 -2 18 -2 25 0 6 3 1 5 -13 5 -14 0 -19 -2 -12 -5z"/>
<path d="M1514 5781 c-5 -5 -18 -11 -29 -14 -11 -3 -1 -4 23 -4 24 0 39 3 35
6 -4 4 -11 9 -14 13 -3 4 -10 4 -15 -1z"/>
<path d="M1398 5773 c7 -3 16 -2 19 1 4 3 -2 6 -13 5 -11 0 -14 -3 -6 -6z"/>
<path d="M1625 5740 c-3 -5 3 -10 15 -10 12 0 18 5 15 10 -3 6 -10 10 -15 10
-5 0 -12 -4 -15 -10z"/>
<path d="M1273 5695 c-3 -9 -3 -18 -1 -21 3 -3 8 4 11 16 6 23 -1 27 -10 5z"/>
<path d="M1468 5683 c6 -2 18 -2 25 0 6 3 1 5 -13 5 -14 0 -19 -2 -12 -5z"/>
<path d="M1770 5640 c0 -22 5 -40 10 -40 6 0 10 18 10 40 0 22 -4 40 -10 40
-5 0 -10 -18 -10 -40z"/>
<path d="M1666 5615 c-20 -41 -35 -52 -47 -34 -6 11 -11 11 -21 1 -9 -9 -9
-12 5 -12 9 0 17 -5 17 -11 0 -5 -4 -8 -9 -5 -5 3 -11 -1 -15 -9 -3 -9 0 -15
10 -15 8 0 17 7 21 15 3 9 18 22 34 30 18 10 26 20 23 30 -5 12 3 15 35 15 30
0 41 4 41 15 0 11 -11 15 -39 15 -34 0 -41 -4 -55 -35z"/>
<path d="M1251 5630 c0 -8 4 -22 9 -30 7 -12 12 -12 22 -2 9 9 9 15 -1 25 -11
10 -13 9 -8 -5 9 -26 -2 -22 -13 5 -5 12 -9 15 -9 7z"/>
<path d="M1240 5588 c0 -9 5 -20 10 -23 13 -8 13 5 0 25 -8 13 -10 13 -10 -2z"/>
<path d="M1751 5585 c1 -11 5 -31 9 -45 8 -24 8 -24 9 5 0 17 -4 37 -9 45 -8
12 -10 11 -9 -5z"/>
<path d="M1390 5559 c0 -5 5 -7 10 -4 6 3 10 8 10 11 0 2 -4 4 -10 4 -5 0 -10
-5 -10 -11z"/>
<path d="M1590 5506 c0 -9 5 -16 10 -16 6 0 10 4 10 9 0 6 -4 13 -10 16 -5 3
-10 -1 -10 -9z"/>
<path d="M1446 5501 c-7 -11 28 -21 54 -14 28 7 14 23 -20 23 -16 0 -31 -4
-34 -9z"/>
<path d="M3412 6356 c-25 -36 -27 -46 -11 -46 5 0 8 4 5 9 -3 5 2 15 11 22 15
12 16 12 10 -4 -4 -11 -3 -16 4 -12 5 4 7 15 4 26 -5 15 -3 18 12 13 10 -3 14
-2 8 3 -5 4 -12 11 -15 15 -3 4 -15 -8 -28 -26z"/>
<path d="M3347 6271 c-13 -23 -14 -28 -2 -28 8 0 11 5 8 10 -3 6 2 16 11 23 9
6 13 15 8 17 -4 3 -16 -7 -25 -22z"/>
<path d="M3529 6293 c-7 -66 -6 -103 2 -103 5 0 14 11 19 24 5 13 14 27 19 31
6 3 11 12 11 18 0 7 -5 4 -11 -5 -5 -10 -18 -18 -27 -17 -11 0 -12 2 -4 6 10
4 10 8 0 21 -11 14 -10 15 6 9 16 -6 17 -5 6 8 -14 17 -20 19 -21 8z"/>
<path d="M3407 6283 c-4 -3 -7 -11 -7 -17 0 -6 5 -5 12 2 6 6 9 14 7 17 -3 3
-9 2 -12 -2z"/>
<path d="M3337 6223 c-4 -3 -7 -11 -7 -17 0 -6 5 -5 12 2 6 6 9 14 7 17 -3 3
-9 2 -12 -2z"/>
<path d="M3601 6198 c0 -14 -7 -29 -13 -31 -10 -4 -10 -6 0 -6 16 -1 25 22 19
46 -3 12 -5 9 -6 -9z"/>
<path d="M3630 6210 c0 -5 5 -10 11 -10 5 0 7 5 4 10 -3 6 -8 10 -11 10 -2 0
-4 -4 -4 -10z"/>
<path d="M3292 6198 c-7 -7 -12 -16 -12 -21 0 -5 7 -1 16 8 9 9 14 18 12 20
-2 3 -10 -1 -16 -7z"/>
<path d="M3640 6180 c-13 -8 -13 -10 2 -10 9 0 20 5 23 10 8 13 -5 13 -25 0z"/>
<path d="M3630 6145 c-10 -12 -15 -13 -21 -4 -4 7 -6 -7 -5 -29 1 -23 -1 -42
-4 -42 -4 0 -7 -7 -7 -17 0 -13 4 -11 19 7 15 18 16 25 6 31 -10 7 -9 12 6 26
18 17 18 17 13 1 -4 -10 -4 -18 0 -18 9 0 32 33 33 48 0 17 -25 15 -40 -3z
m30 -5 c0 -5 -4 -10 -10 -10 -5 0 -10 5 -10 10 0 6 5 10 10 10 6 0 10 -4 10
-10z"/>
<path d="M3237 6123 c-10 -12 -14 -23 -9 -23 6 0 12 7 16 15 3 8 10 15 15 15
6 0 7 -8 4 -17 -6 -17 -6 -17 10 -1 21 21 21 25 -1 30 -11 3 -24 -4 -35 -19z"/>
<path d="M3340 6128 c0 -21 -5 -28 -20 -28 -32 0 -60 -31 -60 -67 0 -18 5 -33
10 -33 6 0 10 -8 11 -17 1 -31 18 18 18 55 1 21 6 32 16 32 7 0 18 6 22 14 4
8 16 15 25 17 16 4 16 6 -2 29 l-20 25 0 -27z"/>
<path d="M3410 6135 c0 -16 16 -20 24 -6 3 5 -1 11 -9 15 -9 3 -15 0 -15 -9z"/>
<path d="M3190 6069 c-7 -12 -7 -20 0 -24 5 -3 10 3 10 14 0 12 5 21 10 21 6
0 10 -18 10 -40 0 -54 17 -51 21 4 4 40 2 44 -19 44 -12 0 -27 -9 -32 -19z"/>
<path d="M3411 6043 c1 -53 6 -49 11 10 2 20 0 37 -4 37 -4 0 -8 -21 -7 -47z"/>
<path d="M3362 6050 c-1 -19 -5 -46 -7 -60 l-6 -25 11 25 c6 13 9 40 7 60 l-4
35 -1 -35z"/>
<path d="M3455 6070 c3 -6 17 -7 30 -4 28 7 65 -11 65 -31 0 -8 7 -15 15 -15
24 0 17 13 -18 38 -33 22 -104 32 -92 12z"/>
<path d="M3460 6040 c0 -5 5 -10 10 -10 6 0 10 5 10 10 0 6 -4 10 -10 10 -5 0
-10 -4 -10 -10z"/>
<path d="M3153 6002 c17 -7 17 -9 -2 -26 -12 -11 -21 -15 -22 -10 0 5 -4 -2
-10 -14 -13 -33 -4 -42 42 -42 21 0 39 -4 39 -10 0 -18 -72 -11 -87 8 -14 16
-14 16 -9 -1 3 -10 6 -24 6 -30 0 -8 15 -11 45 -9 27 3 45 0 45 -6 0 -6 -19
-13 -42 -15 l-43 -4 48 -1 47 -2 0 40 c0 33 3 40 19 40 16 0 20 -8 23 -42 l3
-43 5 49 c5 45 3 52 -28 84 -22 24 -43 36 -65 38 -21 2 -26 0 -14 -4z m43 -68
c-3 -8 -15 -14 -27 -14 -15 0 -19 4 -15 16 3 9 6 19 6 24 0 5 8 10 18 12 18 4
27 -14 18 -38z"/>
<path d="M3078 5922 c-77 -103 -74 -99 -51 -79 12 10 24 14 27 9 3 -5 17 -9
32 -9 14 0 22 2 16 6 -20 13 -23 50 -6 76 26 40 12 38 -18 -3z m2 -52 c0 -5
-7 -10 -16 -10 -8 0 -12 5 -9 10 3 6 10 10 16 10 5 0 9 -4 9 -10z"/>
<path d="M3310 5935 c0 -8 5 -15 10 -15 6 0 10 7 10 15 0 8 -4 15 -10 15 -5 0
-10 -7 -10 -15z"/>
<path d="M3294 5899 c-3 -6 3 -21 15 -32 16 -16 23 -19 33 -9 9 9 7 16 -7 32
-20 23 -31 25 -41 9z"/>
<path d="M3022 5805 c-15 -33 -15 -48 -1 -43 9 3 23 68 14 68 -1 0 -7 -11 -13
-25z"/>
<path d="M2990 5805 c-7 -9 -11 -17 -9 -20 3 -2 10 5 17 15 14 24 10 26 -8 5z"/>
<path d="M3404 5808 c-4 -7 -14 -24 -22 -38 -12 -19 -8 -18 16 8 18 18 32 35
32 38 0 9 -19 3 -26 -8z"/>
<path d="M2665 5381 c-3 -5 -1 -12 5 -16 5 -3 10 1 10 9 0 18 -6 21 -15 7z"/>
<path d="M2104 6006 c-10 -8 -16 -17 -12 -21 3 -4 16 3 27 14 24 24 15 28 -15
7z"/>
<path d="M2453 6013 c20 -2 54 -2 75 0 20 2 3 4 -38 4 -41 0 -58 -2 -37 -4z"/>
<path d="M2728 6013 c7 -3 16 -2 19 1 4 3 -2 6 -13 5 -11 0 -14 -3 -6 -6z"/>
<path d="M2151 5994 c0 -11 3 -14 6 -6 3 7 2 16 -1 19 -3 4 -6 -2 -5 -13z"/>
<path d="M2600 5995 c0 -2 9 -9 20 -15 16 -9 20 -8 20 5 0 8 -9 15 -20 15 -11
0 -20 -2 -20 -5z"/>
<path d="M2830 5976 c0 -9 5 -16 10 -16 6 0 10 4 10 9 0 6 -4 13 -10 16 -5 3
-10 -1 -10 -9z"/>
<path d="M2790 5970 c0 -5 5 -10 11 -10 5 0 7 5 4 10 -3 6 -8 10 -11 10 -2 0
-4 -4 -4 -10z"/>
<path d="M2120 5961 c0 -6 5 -13 10 -16 6 -3 10 1 10 9 0 9 -4 16 -10 16 -5 0
-10 -4 -10 -9z"/>
<path d="M2240 5955 c0 -8 2 -15 4 -15 2 0 6 7 10 15 3 8 1 15 -4 15 -6 0 -10
-7 -10 -15z"/>
<path d="M2810 5939 c0 -5 -3 -8 -7 -6 -5 3 -17 1 -28 -4 -16 -7 -12 -8 14 -6
19 1 36 8 39 15 2 6 -1 12 -7 12 -6 0 -11 -5 -11 -11z"/>
<path d="M2305 5930 c-3 -5 -1 -10 4 -10 6 0 11 5 11 10 0 6 -2 10 -4 10 -3 0
-8 -4 -11 -10z"/>
<path d="M2560 5931 c0 -6 -19 -12 -42 -14 -24 -2 13 -3 82 -3 69 0 92 2 53 3
-40 2 -73 8 -73 13 0 6 -4 10 -10 10 -5 0 -10 -4 -10 -9z"/>
<path d="M2368 5913 c6 -2 18 -2 25 0 6 3 1 5 -13 5 -14 0 -19 -2 -12 -5z"/>
<path d="M4497 5863 c-4 -3 -7 -11 -7 -17 0 -6 5 -5 12 2 6 6 9 14 7 17 -3 3
-9 2 -12 -2z"/>
<path d="M3570 5748 c-31 -46 -32 -52 -5 -27 15 15 26 32 24 38 -2 6 -11 1
-19 -11z"/>
<path d="M3570 5710 c0 -5 5 -10 10 -10 6 0 10 5 10 10 0 6 -4 10 -10 10 -5 0
-10 -4 -10 -10z"/>
<path d="M2542 5666 c2 -7 -8 -23 -22 -34 -21 -17 -22 -22 -11 -36 12 -14 8
-16 -45 -12 -47 3 -51 2 -19 -4 l40 -7 -45 -3 c-33 -3 -22 -5 40 -9 104 -7
119 -4 132 25 6 13 15 21 19 18 5 -3 9 3 9 13 -1 16 -3 16 -19 -4 -12 -15 -22
-18 -32 -12 -12 7 -12 9 1 9 13 0 13 1 0 10 -13 8 -12 10 3 10 9 0 17 5 17 11
0 6 9 9 19 6 11 -3 22 1 25 8 3 9 -2 11 -17 8 -18 -4 -19 -3 -7 6 11 8 2 11
-38 11 -40 0 -52 -3 -50 -14z m15 -58 c-3 -7 -5 -2 -5 12 0 14 2 19 5 13 2 -7
2 -19 0 -25z m31 -25 c-10 -2 -18 -9 -18 -15 0 -6 -3 -9 -6 -5 -10 10 6 27 24
26 15 -1 15 -2 0 -6z"/>
<path d="M2146 5656 c3 -7 -2 -16 -10 -19 -9 -4 -16 -13 -16 -21 0 -8 -7 -16
-15 -18 -10 -2 -12 -8 -6 -17 7 -11 13 -7 25 18 9 17 21 31 26 31 6 0 10 9 10
20 0 11 -4 20 -10 20 -5 0 -7 -6 -4 -14z"/>
<path d="M2406 5661 c-7 -11 28 -21 54 -14 28 7 14 23 -20 23 -16 0 -31 -4
-34 -9z"/>
<path d="M2098 5641 c-9 -11 -14 -22 -11 -25 4 -3 13 3 21 15 18 26 11 34 -10
10z"/>
<path d="M2191 5646 c-6 -8 -10 -20 -9 -27 2 -8 -5 -13 -14 -13 -10 1 -18 -2
-18 -7 0 -5 19 -9 43 -9 31 0 48 6 64 24 12 13 20 26 16 30 -9 8 -33 -14 -33
-30 0 -22 -16 -16 -17 6 -1 11 3 20 8 20 6 0 7 5 4 10 -9 14 -31 12 -44 -4z"/>
<path d="M2313 5640 c2 -21 7 -24 40 -25 21 -1 40 2 43 7 3 4 -13 8 -35 8 -29
0 -41 5 -45 18 -3 10 -4 7 -3 -8z"/>
<path d="M2416 5621 c-8 -12 20 -22 39 -15 19 8 9 24 -15 24 -10 0 -21 -4 -24
-9z"/>
<path d="M2352 5588 c5 -15 28 -18 29 -3 0 6 -7 12 -17 13 -10 3 -15 -1 -12
-10z"/>
<path d="M2134 5582 c3 -5 0 -13 -6 -15 -7 -3 31 -3 85 -1 53 2 105 8 115 14
15 10 15 10 -3 6 -36 -9 -170 -10 -184 -1 -9 5 -12 4 -7 -3z"/>
<path d="M2118 5309 c-20 -11 -24 -44 -7 -55 6 -3 15 0 20 7 4 7 11 10 16 6 4
-5 2 -12 -5 -16 -8 -5 -10 -15 -6 -27 6 -14 0 -12 -22 9 -15 16 -30 24 -32 18
-2 -6 7 -20 20 -31 21 -18 38 -20 170 -19 l147 1 15 33 c9 18 16 40 16 49 0 9
7 16 15 16 8 0 15 5 15 11 0 12 -293 7 -324 -6 -14 -6 -17 -5 -12 3 9 15 -3
15 -26 1z m31 -18 c9 -6 6 -8 -13 -8 -14 0 -23 3 -20 8 7 11 15 11 33 0z"/>
</g>
</svg>
